<?xml version="1.0" encoding="UTF-8"?>
<svg id="_레이어_1" data-name="레이어 1" xmlns="http://www.w3.org/2000/svg" viewBox="0 0 850.39 850.39">
  <defs>
    <style>
      .cls-1 {
        fill: #ffe12e;
      }

      .cls-2 {
        fill: #231815;
      }
    </style>
  </defs>
  <ellipse class="cls-1" cx="705.11" cy="372.08" rx="21.43" ry="38.05" transform="translate(-91.57 402.4) rotate(-30)"/>
  <path class="cls-2" d="m425.11,543.1c-71.79,0-131.5-11.04-165.95-30.96-45.5-26.32-64.27-62.7-72.01-88.58-1.12-3.76-2.05-7.41-2.82-10.91l-35.12,48.33c-3.31,4.56-9.05,6.68-14.53,5.37-5.48-1.31-9.64-5.79-10.54-11.36l-8.6-53.39-28.41,43.06c-4.25,6.43-12.9,8.21-19.34,3.96-6.43-4.25-8.21-12.9-3.96-19.34l48.14-72.97c3.17-4.8,8.96-7.17,14.58-5.96,5.63,1.21,9.93,5.75,10.85,11.43l8.96,55.62,37.54-51.67c3.73-5.14,10.47-7.11,16.38-4.79,5.92,2.32,9.52,8.34,8.77,14.64-.31,2.84-6.98,71.29,64.07,112.39,33.05,19.12,97.79,29.17,173.17,26.88,73.56-2.23,143.15-16.13,181.6-36.27,33.12-17.35,57.98-36.51,73.05-55.96-23.42-11.9-42.5-37.01-44.09-60.88-1.3-19.55,8.66-37.18,24.8-43.86,15.61-6.47,32.7-1.46,45.7,13.4,15.08,17.23,21.23,40.46,16.89,63.71-.2,1.06-.42,2.13-.67,3.23,10.77-5.77,18.79-17.45,24.26-28.18,3.5-6.87,11.91-9.6,18.78-6.1,6.87,3.5,9.6,11.91,6.1,18.77-9.36,18.36-20.92,31.57-34.37,39.29-8.85,5.08-18.47,7.7-28.34,7.78-14.27,22.45-40.83,48.22-89.17,73.53-42.6,22.31-115.01,37.06-193.71,39.44-7.46.23-14.82.34-22.05.34Zm270.2-200.01c-.97,0-1.96.18-2.94.59-4.09,1.69-8.22,7.49-7.63,16.21.87,13.09,13.66,30.9,29.86,38.42.97-2.83,1.72-5.64,2.24-8.45,3.78-20.25-4.93-33.88-10.46-40.2-2.33-2.66-6.53-6.58-11.06-6.58Z"/>
  <path class="cls-2" d="m353.58,291.23c-44.56,0-80.81,36.25-80.81,80.81s36.25,80.81,80.81,80.81,80.81-36.25,80.81-80.81-36.25-80.81-80.81-80.81Zm0,133.7c-16.63,0-31.48-7.72-41.18-19.76,2.29.66,4.7,1.03,7.2,1.03,14.34,0,25.96-11.62,25.96-25.96s-11.62-25.96-25.96-25.96c-6.92,0-13.18,2.72-17.84,7.13,4.93-24.09,26.29-42.27,51.82-42.27,29.17,0,52.89,23.73,52.89,52.89s-23.73,52.89-52.89,52.89Z"/>
  <path class="cls-2" d="m518.47,259.89c-44.56,0-80.81,36.25-80.81,80.81s36.25,80.81,80.81,80.81,80.81-36.25,80.81-80.81-36.25-80.81-80.81-80.81Zm0,133.7c-16.63,0-31.48-7.72-41.18-19.76,2.29.66,4.7,1.03,7.2,1.03,14.34,0,25.96-11.62,25.96-25.96s-11.62-25.96-25.96-25.96c-6.92,0-13.18,2.72-17.84,7.13,4.93-24.09,26.29-42.27,51.82-42.27,29.16,0,52.89,23.73,52.89,52.89s-23.73,52.89-52.89,52.89Z"/>
</svg>