<?xml version="1.0" encoding="UTF-8"?>
<svg id="_레이어_1" data-name="레이어 1" xmlns="http://www.w3.org/2000/svg" viewBox="0 0 850.39 850.39">
  <defs>
    <style>
      .cls-1 {
        fill: #ffe12e;
      }

      .cls-2 {
        fill: #231815;
      }
    </style>
  </defs>
  <ellipse class="cls-1" cx="631.52" cy="589.2" rx="16.48" ry="18.4"/>
  <circle cx="637.53" cy="603.24" r="4.66"/>
  <ellipse class="cls-1" cx="154.93" cy="588.98" rx="16.48" ry="18.4"/>
  <ellipse class="cls-1" cx="224.01" cy="588.98" rx="16.48" ry="18.4"/>
  <ellipse class="cls-1" cx="705.11" cy="306.34" rx="21.43" ry="38.05" transform="translate(-58.7 393.59) rotate(-30)"/>
  <path class="cls-2" d="m425.11,477.37c-71.79,0-131.5-11.04-165.95-30.96-45.5-26.32-64.27-62.7-72.01-88.58-1.12-3.76-2.05-7.41-2.82-10.91l-35.12,48.33c-3.31,4.56-9.05,6.68-14.53,5.37-5.48-1.31-9.64-5.79-10.54-11.36l-8.6-53.39-28.41,43.06c-4.25,6.43-12.9,8.21-19.34,3.96-6.43-4.25-8.21-12.9-3.96-19.34l48.14-72.97c3.17-4.8,8.96-7.17,14.58-5.96,5.63,1.21,9.93,5.75,10.85,11.43l8.96,55.62,37.54-51.67c3.73-5.14,10.47-7.11,16.38-4.79,5.92,2.32,9.52,8.34,8.77,14.64-.31,2.84-6.98,71.29,64.07,112.39,33.05,19.12,97.79,29.17,173.17,26.88,73.56-2.23,143.15-16.13,181.6-36.27,33.12-17.35,57.98-36.51,73.05-55.96-23.42-11.9-42.5-37.01-44.09-60.88-1.3-19.55,8.66-37.18,24.8-43.86,15.61-6.47,32.7-1.46,45.7,13.4,15.08,17.23,21.23,40.46,16.89,63.71-.2,1.06-.42,2.13-.67,3.23,10.77-5.77,18.79-17.45,24.26-28.18,3.5-6.87,11.91-9.6,18.78-6.1,6.87,3.5,9.6,11.91,6.1,18.77-9.36,18.36-20.92,31.57-34.37,39.29-8.85,5.08-18.47,7.7-28.34,7.78-14.27,22.45-40.83,48.22-89.17,73.53-42.6,22.31-115.01,37.06-193.71,39.44-7.46.23-14.82.34-22.05.34Zm270.2-200.01c-.97,0-1.96.18-2.94.59-4.09,1.69-8.22,7.49-7.63,16.21.87,13.09,13.66,30.9,29.86,38.42.97-2.83,1.72-5.64,2.24-8.45,3.78-20.25-4.93-33.88-10.46-40.2-2.33-2.66-6.53-6.58-11.06-6.58Z"/>
  <path class="cls-2" d="m353.58,225.49c-44.56,0-80.81,36.25-80.81,80.81s36.25,80.81,80.81,80.81,80.81-36.25,80.81-80.81-36.25-80.81-80.81-80.81Zm0,133.7c-16.63,0-31.48-7.72-41.18-19.76,2.29.66,4.7,1.03,7.2,1.03,14.34,0,25.96-11.62,25.96-25.96s-11.62-25.96-25.96-25.96c-6.92,0-13.18,2.72-17.84,7.13,4.93-24.09,26.29-42.27,51.82-42.27,29.17,0,52.89,23.73,52.89,52.89s-23.73,52.89-52.89,52.89Z"/>
  <path class="cls-2" d="m518.47,194.15c-44.56,0-80.81,36.25-80.81,80.81s36.25,80.81,80.81,80.81,80.81-36.25,80.81-80.81-36.25-80.81-80.81-80.81Zm0,133.7c-16.63,0-31.48-7.72-41.18-19.76,2.29.66,4.7,1.03,7.2,1.03,14.34,0,25.96-11.62,25.96-25.96s-11.62-25.96-25.96-25.96c-6.92,0-13.18,2.72-17.84,7.13,4.93-24.09,26.29-42.27,51.82-42.27,29.16,0,52.89,23.73,52.89,52.89s-23.73,52.89-52.89,52.89Z"/>
  <path d="m75.66,581.84v20.82h2.52c1.68,0,2.88.32,3.6.97.72.65,1.07,1.49,1.07,2.54s-.36,1.86-1.07,2.51c-.72.65-1.91.97-3.6.97h-9.17c-1.68,0-2.88-.32-3.6-.97-.72-.65-1.07-1.49-1.07-2.54s.35-1.86,1.06-2.5c.7-.65,1.79-.97,3.27-.97v-27.33c-1.23-.11-2.15-.49-2.78-1.12-.62-.64-.94-1.43-.94-2.39,0-1.04.36-1.89,1.07-2.54.72-.65,1.91-.97,3.6-.97l7.67.03,9.51,21.03,9.34-21.06,7.74.03c1.68,0,2.88.32,3.6.95.72.64,1.07,1.48,1.07,2.52,0,.95-.32,1.75-.95,2.39-.64.64-1.56,1.01-2.76,1.12v27.33c1.48,0,2.57.33,3.27.99.7.66,1.06,1.5,1.06,2.52s-.36,1.86-1.07,2.51c-.72.65-1.91.97-3.6.97h-9.2c-1.66,0-2.85-.32-3.56-.97-.72-.65-1.07-1.49-1.07-2.54s.36-1.86,1.07-2.5c.72-.65,1.9-.97,3.56-.97h2.56v-20.82l-8.01,17.99h-6.07l-8.11-17.99Z"/>
  <path d="m175.99,589c0,6.2-1.97,11.37-5.91,15.49-3.94,4.12-8.5,6.19-13.68,6.19-4.66,0-8.86-1.71-12.61-5.15-4.63-4.25-6.95-9.76-6.95-16.53s2.32-12.29,6.95-16.56c3.75-3.43,7.95-5.15,12.61-5.15,5.18,0,9.74,2.06,13.68,6.18,3.94,4.12,5.91,9.3,5.91,15.52Zm-6.99,0c0-4.25-1.28-7.76-3.85-10.55-2.57-2.78-5.49-4.17-8.76-4.17s-6.16,1.4-8.72,4.19c-2.57,2.79-3.85,6.3-3.85,10.53s1.28,7.73,3.85,10.51c2.57,2.78,5.47,4.18,8.72,4.18s6.19-1.38,8.76-4.16c2.57-2.77,3.85-6.28,3.85-10.53Z"/>
  <path d="m245.79,589c0,6.2-1.97,11.37-5.91,15.49-3.94,4.12-8.5,6.19-13.68,6.19-4.66,0-8.86-1.71-12.61-5.15-4.63-4.25-6.95-9.76-6.95-16.53s2.32-12.29,6.95-16.56c3.75-3.43,7.95-5.15,12.61-5.15,5.18,0,9.74,2.06,13.68,6.18,3.94,4.12,5.91,9.3,5.91,15.52Zm-6.99,0c0-4.25-1.28-7.76-3.85-10.55-2.57-2.78-5.49-4.17-8.76-4.17s-6.16,1.4-8.72,4.19c-2.57,2.79-3.85,6.3-3.85,10.53s1.28,7.73,3.85,10.51c2.57,2.78,5.47,4.18,8.72,4.18s6.19-1.38,8.76-4.16c2.57-2.77,3.85-6.28,3.85-10.53Z"/>
  <path d="m295.96,599.46l10.12-24.13h-1.6c-1.68,0-2.88-.32-3.6-.97-.72-.65-1.07-1.49-1.07-2.54s.36-1.89,1.07-2.54c.72-.65,1.91-.97,3.6-.97l9.37.03c1.68,0,2.88.32,3.6.95.72.64,1.07,1.48,1.07,2.52,0,1.25-.55,2.24-1.64,2.96-.52.36-1.59.55-3.2.55l-14.35,34.32h-6.71l-14.31-34.32c-1.64,0-2.72-.18-3.24-.55-1.09-.7-1.64-1.69-1.64-2.96,0-1.04.36-1.89,1.07-2.54.72-.65,1.91-.97,3.6-.97l9.44.03c1.66,0,2.85.32,3.56.95.72.64,1.07,1.48,1.07,2.52s-.35,1.89-1.06,2.54c-.7.65-1.9.97-3.58.97h-1.64l10.05,24.13Z"/>
  <path d="m369.27,575.33v27.33h7.05c1.68,0,2.88.32,3.6.97.71.65,1.07,1.49,1.07,2.54s-.36,1.86-1.07,2.51c-.72.65-1.92.97-3.6.97h-21.09c-1.68,0-2.88-.32-3.6-.97-.72-.65-1.07-1.49-1.07-2.54s.36-1.86,1.07-2.5c.72-.65,1.91-.97,3.6-.97h7.05v-27.33h-7.05c-1.68,0-2.88-.32-3.6-.97-.72-.65-1.07-1.49-1.07-2.54s.36-1.89,1.07-2.54c.72-.65,1.91-.97,3.6-.97l21.09.03c1.68,0,2.88.32,3.6.95.71.64,1.07,1.48,1.07,2.52s-.36,1.89-1.07,2.54c-.72.65-1.92.97-3.6.97h-7.05Z"/>
  <path d="m428.4,592.4v10.26h17.82v-3.78c0-1.68.32-2.88.97-3.6.65-.71,1.49-1.07,2.54-1.07s1.86.36,2.51,1.07c.65.72.97,1.92.97,3.6v10.77h-32.89c-1.68,0-2.88-.32-3.59-.97-.72-.65-1.07-1.49-1.07-2.54s.36-1.86,1.09-2.5c.73-.65,1.92-.97,3.58-.97h1.09v-27.33h-1.09c-1.68,0-2.88-.32-3.59-.97-.72-.65-1.07-1.49-1.07-2.54s.36-1.89,1.07-2.54c.71-.65,1.91-.97,3.59-.97l31.35.03v10.63c0,1.66-.32,2.85-.95,3.56-.64.72-1.48,1.07-2.52,1.07s-1.89-.35-2.54-1.06c-.65-.7-.97-1.9-.97-3.58v-3.65h-16.29v10.09h6.13c0-1.82.17-2.99.51-3.51.7-1.11,1.7-1.67,3-1.67,1.02,0,1.86.36,2.5,1.07.65.72.97,1.92.97,3.6v8.04c0,1.52-.18,2.54-.55,3.07-.73,1.07-1.7,1.6-2.93,1.6-1.3,0-2.3-.56-3-1.67-.34-.52-.51-1.7-.51-3.54h-6.13Z"/>
  <g>
    <path d="m565.07,575.19v27.33h4.7c1.68,0,2.88.32,3.6.97.71.65,1.07,1.49,1.07,2.54s-.36,1.86-1.07,2.51c-.72.65-1.92.97-3.6.97h-16.36c-1.68,0-2.88-.32-3.6-.97-.71-.65-1.07-1.49-1.07-2.54s.36-1.86,1.07-2.5c.72-.65,1.91-.97,3.6-.97h4.67v-27.33h-7.57v6.61c0,1.68-.32,2.88-.97,3.59-.65.72-1.49,1.07-2.54,1.07s-1.86-.36-2.51-1.07c-.65-.71-.97-1.91-.97-3.59v-13.63l36.19.03v13.6c0,1.68-.32,2.88-.97,3.59-.65.72-1.5,1.07-2.54,1.07s-1.86-.36-2.5-1.07c-.65-.71-.97-1.91-.97-3.59v-6.61h-7.67Z"/>
    <path d="m651.09,588.86c0,6.2-1.97,11.37-5.91,15.49-3.94,4.12-8.5,6.19-13.68,6.19-4.66,0-8.86-1.71-12.61-5.15-4.63-4.25-6.95-9.76-6.95-16.53s2.32-12.29,6.95-16.56c3.75-3.43,7.95-5.15,12.61-5.15,5.18,0,9.74,2.06,13.68,6.18,3.94,4.12,5.91,9.3,5.91,15.52Zm-6.99,0c0-4.25-1.28-7.76-3.85-10.55-2.57-2.78-5.49-4.17-8.76-4.17s-6.16,1.4-8.72,4.19c-2.57,2.79-3.85,6.3-3.85,10.53s1.28,7.73,3.85,10.51c2.57,2.78,5.47,4.18,8.72,4.18s6.19-1.38,8.76-4.16c2.57-2.77,3.85-6.28,3.85-10.53Z"/>
    <path d="m717.25,575.19v19.8c0,4.32-1.55,7.99-4.65,11.01-3.1,3.02-6.83,4.53-11.19,4.53-2.16,0-4.19-.38-6.08-1.14-1.9-.76-3.6-1.88-5.11-3.36-1.51-1.48-2.69-3.02-3.53-4.62-.84-1.6-1.26-3.74-1.26-6.42v-19.8c-1.48,0-2.57-.33-3.27-.99-.7-.66-1.06-1.5-1.06-2.52s.35-1.89,1.06-2.52c.7-.64,1.91-.95,3.61-.95l9.17-.03c1.68,0,2.88.32,3.6.97.71.65,1.07,1.49,1.07,2.54s-.36,1.89-1.07,2.54c-.72.65-1.92.97-3.6.97h-2.52v20.41c0,2.09.87,3.94,2.61,5.54,1.74,1.6,3.83,2.4,6.29,2.4,1.64,0,3.17-.39,4.6-1.16,1.43-.77,2.6-1.9,3.51-3.37.57-.93.85-2.07.85-3.41v-20.41h-2.52c-1.68,0-2.88-.32-3.6-.97-.71-.65-1.07-1.49-1.07-2.54s.36-1.89,1.07-2.54c.72-.65,1.91-.97,3.6-.97l9.17.03c1.68,0,2.88.32,3.59.95.72.64,1.07,1.48,1.07,2.52s-.35,1.86-1.06,2.52c-.7.66-1.8.99-3.27.99Z"/>
    <path d="m763.87,593.73v8.79h2.52c1.68,0,2.88.32,3.59.97.72.65,1.07,1.49,1.07,2.54s-.36,1.86-1.07,2.51c-.71.65-1.91.97-3.59.97h-10.6c-1.68,0-2.88-.32-3.6-.97-.71-.65-1.07-1.49-1.07-2.54s.36-1.86,1.09-2.5c.73-.65,1.92-.97,3.58-.97h1.09v-27.33h-1.09c-1.68,0-2.88-.32-3.6-.97-.71-.65-1.07-1.49-1.07-2.54s.36-1.89,1.07-2.54c.72-.65,1.91-.97,3.6-.97l15.81.03c4.93,0,8.75,1.22,11.47,3.66,2.72,2.44,4.07,5.41,4.07,8.91,0,2.18-.64,4.16-1.91,5.95-1.27,1.78-3.19,3.37-5.76,4.75,1.48,1.29,3.05,2.95,4.74,4.98,1.04,1.29,2.45,3.32,4.23,6.07,1.77,0,2.94.18,3.51.55,1.02.7,1.53,1.69,1.53,2.96,0,1.02-.35,1.86-1.06,2.51-.7.65-1.9.97-3.58.97h-3.99c-5.66-8.75-10.35-14.01-14.07-15.78h-6.92Zm0-6.99h5.45c2.02,0,3.83-.31,5.42-.92,2.13-.82,3.57-1.68,4.31-2.59.74-.91,1.11-1.81,1.11-2.69,0-1.32-.7-2.54-2.11-3.66-1.41-1.12-3.47-1.69-6.17-1.69h-8.01v11.55Z"/>
  </g>
  <circle cx="159.59" cy="603.02" r="4.66"/>
  <circle cx="230.02" cy="603.02" r="4.66"/>
</svg>